<svg xmlns="http://www.w3.org/2000/svg" viewBox="0 0 328.4 328.46"><defs><style>.cls-1{fill:none;}.cls-1,.cls-2{stroke:#000;stroke-miterlimit:10;}</style></defs><g id="Capa_2" data-name="Capa 2"><g id="Capa_1-2" data-name="Capa 1"><path class="cls-1" d="M159.55,328c-2-.14-4.08-.31-6.13-.43A156.28,156.28,0,0,1,124,322.91,164.19,164.19,0,0,1,19,239.82,161.21,161.21,0,0,1,3.23,194.13,165,165,0,0,1,.56,159.47,162.84,162.84,0,0,1,34.3,64.62,163.48,163.48,0,0,1,172.07.69a161.51,161.51,0,0,1,59.14,14.16A164.67,164.67,0,0,1,311.61,93a161.67,161.67,0,0,1,13.68,42.07,163.64,163.64,0,0,1,2.57,32.77A164.1,164.1,0,0,1,213,320.5a150.11,150.11,0,0,1-30.39,6.33c-4.19.41-8.41.64-12.61,1-.41,0-.81.11-1.21.17ZM313.64,164.17A149.47,149.47,0,1,0,164.2,313.68,149.28,149.28,0,0,0,313.64,164.17Z"/><path class="cls-2" d="M313.64,164.17A149.47,149.47,0,1,1,166.58,14.76,149.37,149.37,0,0,1,313.64,164.17ZM64.52,178l7.13,4.83V181.5c0-3.66-.06-7.32,0-11a25.06,25.06,0,0,1,7.26-17.67c4.82-4.9,10.8-7.89,17.2-10.11,11.53-4,23.52-5.52,35.61-6.2,8.8-.5,17.62-.68,26.43-.74,16.07-.12,32.14-.22,48.14,1.55a125.58,125.58,0,0,1,22.6,4.31c6.32,1.91,12.36,4.42,17.58,8.58,6.59,5.25,10.12,12,10.2,20.5,0,3.59,0,7.18,0,10.77,0,.37,0,.75.05,1.27.35-.21.52-.3.67-.4L281,166.25c4.93-3.36,9.83-6.77,14.82-10.05a7.09,7.09,0,0,0,3.6-6.63,6.94,6.94,0,0,0-4.39-6.25l-7.15-3.17-39.21-17.42-47.57-21.15-33.8-15a7.36,7.36,0,0,0-6.19,0Q147,92.8,132.91,99.08q-22.62,10.07-45.23,20.13-27.27,12.12-54.53,24.24A6.74,6.74,0,0,0,29,149.6a6.9,6.9,0,0,0,3.21,6.4c5.08,3.47,10.1,7.06,15.32,10.3,2.29,1.41,2.89,3,2.86,5.57-.14,12,0,24-.08,36a2,2,0,0,1-.59,1.39c-6.1,4.38-8.11,10.47-5.16,17.35,2,4.75,4.55,9.31,7.05,13.84,1.72,3.12,3.78,6.07,5.79,9.25.92-1.41,1.75-2.64,2.55-3.89a119,119,0,0,0,10.32-18.91c2.77-6.82.93-13.51-4.85-17.39a1.77,1.77,0,0,1-.9-1.71c0-9.49,0-19,0-28.47Zm178,10.61V187.5c0-5.08-.07-10.16,0-15.24a13.23,13.23,0,0,0-5.82-11.48c-4.79-3.53-10.35-5.23-16-6.55-10.73-2.49-21.67-3.37-32.64-3.79a518.4,518.4,0,0,0-57.8.62,137.8,137.8,0,0,0-24.32,3.61c-4.89,1.25-9.66,2.85-13.84,5.81s-6.34,6.67-6.21,11.83,0,10.09,0,15.13v1.25c.33-.11.47-.14.6-.2a92.61,92.61,0,0,1,21-6,233,233,0,0,1,34.95-3.55c10.9-.35,21.81-.39,32.72-.29,7.46.07,14.93.48,22.38,1,5.39.37,10.77,1,16.14,1.73A116.86,116.86,0,0,1,235.08,186C237.55,186.76,240,187.71,242.5,188.62Zm-83.65,32.59c18.36-.14,31.34-.58,44.28-2a182.81,182.81,0,0,0,23.94-3.87c4.35-1.06,8.68-2.23,12.53-4.64s3.91-5.26.07-7.54a35.8,35.8,0,0,0-7.21-3.21,125.92,125.92,0,0,0-27-5.13c-8.76-.85-17.56-1.46-26.35-1.86a374.91,374.91,0,0,0-41.33.5,247.53,247.53,0,0,0-30,3.54c-5.25,1-10.48,2.07-15.39,4.23A23.47,23.47,0,0,0,87,204.65c-1.55,1.29-1.47,3.13,0,4.53a10.82,10.82,0,0,0,3.24,2.33,82.38,82.38,0,0,0,9.55,3.43,164.63,164.63,0,0,0,31.59,4.86C142.25,220.58,153.23,220.93,158.85,221.21Z"/></g></g></svg>