<svg xmlns="http://www.w3.org/2000/svg" viewBox="0 0 327.4 327.46"><defs><style>.cls-1{fill:#fff;}</style></defs><g id="Capa_2" data-name="Capa 2"><g id="Capa_1-2" data-name="Capa 1"><path class="cls-1" d="M159.05,327.46c-2-.14-4.08-.31-6.13-.43a156.28,156.28,0,0,1-29.47-4.62,164.19,164.19,0,0,1-105-83.09A161.21,161.21,0,0,1,2.73,193.63,165,165,0,0,1,.06,159,162.84,162.84,0,0,1,33.8,64.12,163.48,163.48,0,0,1,171.57.19a161.51,161.51,0,0,1,59.14,14.16,164.67,164.67,0,0,1,80.4,78.16,161.67,161.67,0,0,1,13.68,42.07,163.64,163.64,0,0,1,2.57,32.77A164.1,164.1,0,0,1,212.46,320a150.11,150.11,0,0,1-30.39,6.33c-4.19.41-8.41.64-12.61,1-.41,0-.81.11-1.21.17ZM313.14,163.67A149.47,149.47,0,1,0,163.7,313.18,149.28,149.28,0,0,0,313.14,163.67Z"/><path class="cls-1" d="M64,177.51v1.31c0,9.49,0,19,0,28.47a1.77,1.77,0,0,0,.9,1.71c5.78,3.88,7.62,10.57,4.85,17.39A119,119,0,0,1,59.43,245.3c-.8,1.25-1.63,2.48-2.55,3.89-2-3.18-4.07-6.13-5.79-9.25-2.5-4.53-5-9.09-7.05-13.84-2.95-6.88-.94-13,5.16-17.35a2,2,0,0,0,.59-1.39c0-12-.06-24,.08-36,0-2.56-.57-4.16-2.86-5.57-5.22-3.24-10.24-6.83-15.32-10.3a6.9,6.9,0,0,1-3.21-6.4A6.74,6.74,0,0,1,32.65,143q27.26-12.13,54.53-24.24,22.62-10,45.23-20.13,14.09-6.27,28.18-12.52a7.36,7.36,0,0,1,6.19,0l33.8,15,47.57,21.15,39.21,17.42,7.15,3.17a6.94,6.94,0,0,1,4.39,6.25,7.09,7.09,0,0,1-3.6,6.63c-5,3.28-9.89,6.69-14.82,10.05l-23.55,16.13c-.15.1-.32.19-.67.4,0-.52-.05-.9-.05-1.27,0-3.59,0-7.18,0-10.77-.08-8.47-3.61-15.25-10.2-20.5-5.22-4.16-11.26-6.67-17.58-8.58a125.58,125.58,0,0,0-22.6-4.31c-16-1.77-32.07-1.67-48.14-1.55-8.81.06-17.63.24-26.43.74-12.09.68-24.08,2.2-35.61,6.2-6.4,2.22-12.38,5.21-17.2,10.11A25.06,25.06,0,0,0,71.17,170c-.08,3.66,0,7.32,0,11v1.34Z"/><path class="cls-1" d="M242,188.12c-2.53-.91-4.95-1.86-7.42-2.66a116.86,116.86,0,0,0-21.39-4.62c-5.37-.69-10.75-1.36-16.14-1.73-7.45-.5-14.92-.91-22.38-1-10.91-.1-21.82-.06-32.72.29A233,233,0,0,0,107,182a92.61,92.61,0,0,0-21,6c-.13.06-.27.09-.6.2v-1.25c0-5,.1-10.09,0-15.13s2.13-8.95,6.21-11.83,9-4.56,13.84-5.81a137.8,137.8,0,0,1,24.32-3.61,518.4,518.4,0,0,1,57.8-.62c11,.42,21.91,1.3,32.64,3.79,5.69,1.32,11.25,3,16,6.55A13.23,13.23,0,0,1,242,171.76c-.1,5.08,0,10.16,0,15.24Z"/><path class="cls-1" d="M158.35,220.71c-5.62-.28-16.6-.63-27.54-1.41a164.63,164.63,0,0,1-31.59-4.86A82.38,82.38,0,0,1,89.67,211a10.82,10.82,0,0,1-3.24-2.33c-1.44-1.4-1.52-3.24,0-4.53a23.47,23.47,0,0,1,5.46-3.38c4.91-2.16,10.14-3.24,15.39-4.23a247.53,247.53,0,0,1,30-3.54,374.91,374.91,0,0,1,41.33-.5c8.79.4,17.59,1,26.35,1.86a125.92,125.92,0,0,1,27,5.13,35.8,35.8,0,0,1,7.21,3.21c3.84,2.28,3.73,5.15-.07,7.54s-8.18,3.58-12.53,4.64a182.81,182.81,0,0,1-23.94,3.87C189.69,220.13,176.71,220.57,158.35,220.71Z"/></g></g></svg>